solid Created by Gmsh
facet normal 0 0 1
  outer loop
    vertex 0 0 0
    vertex 0.2499999999994083 0 0
    vertex 0.125 0.125 0
  endloop
endfacet
facet normal 0 -0 1
  outer loop
    vertex 0.2499999999994083 0 0
    vertex 0.3749999999993359 0.125 0
    vertex 0.125 0.125 0
  endloop
endfacet
facet normal 0 0 1
  outer loop
    vertex 0.2499999999994083 0 0
    vertex 0.4999999999986718 0 0
    vertex 0.3749999999993359 0.125 0
  endloop
endfacet
facet normal 0 0 1
  outer loop
    vertex 0.125 0.125 0
    vertex 0.3749999999993359 0.125 0
    vertex 0.25 0.25 0
  endloop
endfacet
facet normal 0 -0 1
  outer loop
    vertex 0.4999999999986718 0 0
    vertex 0.6249999999993359 0.125 0
    vertex 0.3749999999993359 0.125 0
  endloop
endfacet
facet normal 0 0 1
  outer loop
    vertex 0.6249999999993359 0.125 0
    vertex 0.5 0.25 0
    vertex 0.3749999999993359 0.125 0
  endloop
endfacet
facet normal 0 -0 1
  outer loop
    vertex 0.6249999999993359 0.125 0
    vertex 0.75 0.25 0
    vertex 0.5 0.25 0
  endloop
endfacet
facet normal 0 -0 1
  outer loop
    vertex 0.3749999999993359 0.125 0
    vertex 0.5 0.25 0
    vertex 0.25 0.25 0
  endloop
endfacet
facet normal 0 0 1
  outer loop
    vertex 0.4999999999986718 0 0
    vertex 0.7499999999993359 0 0
    vertex 0.6249999999993359 0.125 0
  endloop
endfacet
facet normal 0 -0 1
  outer loop
    vertex 0.7499999999993359 0 0
    vertex 0.875 0.125 0
    vertex 0.6249999999993359 0.125 0
  endloop
endfacet
facet normal 0 0 1
  outer loop
    vertex 0.7499999999993359 0 0
    vertex 1 0 0
    vertex 0.875 0.125 0
  endloop
endfacet
facet normal 0 0 1
  outer loop
    vertex 0.6249999999993359 0.125 0
    vertex 0.875 0.125 0
    vertex 0.75 0.25 0
  endloop
endfacet
facet normal 0 0 1
  outer loop
    vertex 0.25 0.25 0
    vertex 0.5 0.25 0
    vertex 0.375 0.375 0
  endloop
endfacet
facet normal 0 -0 1
  outer loop
    vertex 0.5 0.25 0
    vertex 0.625 0.375 0
    vertex 0.375 0.375 0
  endloop
endfacet
facet normal 0 0 1
  outer loop
    vertex 0.5 0.25 0
    vertex 0.75 0.25 0
    vertex 0.625 0.375 0
  endloop
endfacet
facet normal 0 0 1
  outer loop
    vertex 0.375 0.375 0
    vertex 0.625 0.375 0
    vertex 0.5 0.5 0
  endloop
endfacet
facet normal 0 0 1
  outer loop
    vertex 0 1 0
    vertex 0 0.7500000000004128 0
    vertex 0.125 0.875 0
  endloop
endfacet
facet normal -0 0 1
  outer loop
    vertex 0 0.7500000000004128 0
    vertex 0.125 0.6250000000006652 0
    vertex 0.125 0.875 0
  endloop
endfacet
facet normal 0 0 1
  outer loop
    vertex 0 0.7500000000004128 0
    vertex 0 0.5000000000013305 0
    vertex 0.125 0.6250000000006652 0
  endloop
endfacet
facet normal 0 0 1
  outer loop
    vertex 0.125 0.875 0
    vertex 0.125 0.6250000000006652 0
    vertex 0.25 0.75 0
  endloop
endfacet
facet normal -0 0 1
  outer loop
    vertex 0 0.5000000000013305 0
    vertex 0.125 0.3750000000006652 0
    vertex 0.125 0.6250000000006652 0
  endloop
endfacet
facet normal 0 0 1
  outer loop
    vertex 0.125 0.3750000000006652 0
    vertex 0.25 0.5 0
    vertex 0.125 0.6250000000006652 0
  endloop
endfacet
facet normal -0 0 1
  outer loop
    vertex 0.125 0.3750000000006652 0
    vertex 0.25 0.25 0
    vertex 0.25 0.5 0
  endloop
endfacet
facet normal -0 0 1
  outer loop
    vertex 0.125 0.6250000000006652 0
    vertex 0.25 0.5 0
    vertex 0.25 0.75 0
  endloop
endfacet
facet normal 0 0 1
  outer loop
    vertex 0 0.5000000000013305 0
    vertex 0 0.2500000000006652 0
    vertex 0.125 0.3750000000006652 0
  endloop
endfacet
facet normal -0 0 1
  outer loop
    vertex 0 0.2500000000006652 0
    vertex 0.125 0.125 0
    vertex 0.125 0.3750000000006652 0
  endloop
endfacet
facet normal 0 0 1
  outer loop
    vertex 0 0.2500000000006652 0
    vertex 0 0 0
    vertex 0.125 0.125 0
  endloop
endfacet
facet normal 0 0 1
  outer loop
    vertex 0.125 0.3750000000006652 0
    vertex 0.125 0.125 0
    vertex 0.25 0.25 0
  endloop
endfacet
facet normal 0 0 1
  outer loop
    vertex 0.25 0.75 0
    vertex 0.25 0.5 0
    vertex 0.375 0.625 0
  endloop
endfacet
facet normal -0 0 1
  outer loop
    vertex 0.25 0.5 0
    vertex 0.375 0.375 0
    vertex 0.375 0.625 0
  endloop
endfacet
facet normal 0 0 1
  outer loop
    vertex 0.25 0.5 0
    vertex 0.25 0.25 0
    vertex 0.375 0.375 0
  endloop
endfacet
facet normal 0 0 1
  outer loop
    vertex 0.375 0.625 0
    vertex 0.375 0.375 0
    vertex 0.5 0.5 0
  endloop
endfacet
facet normal 0 0 1
  outer loop
    vertex 1 0 0
    vertex 1.249999999999207 0 0
    vertex 1.125 0.125 0
  endloop
endfacet
facet normal 0 -0 1
  outer loop
    vertex 1.249999999999207 0 0
    vertex 1.374999999999311 0.125 0
    vertex 1.125 0.125 0
  endloop
endfacet
facet normal 0 0 1
  outer loop
    vertex 1.249999999999207 0 0
    vertex 1.499999999998621 0 0
    vertex 1.374999999999311 0.125 0
  endloop
endfacet
facet normal 0 0 1
  outer loop
    vertex 1.125 0.125 0
    vertex 1.374999999999311 0.125 0
    vertex 1.25 0.25 0
  endloop
endfacet
facet normal 0 -0 1
  outer loop
    vertex 1.499999999998621 0 0
    vertex 1.624999999999311 0.125 0
    vertex 1.374999999999311 0.125 0
  endloop
endfacet
facet normal 0 0 1
  outer loop
    vertex 1.624999999999311 0.125 0
    vertex 1.5 0.25 0
    vertex 1.374999999999311 0.125 0
  endloop
endfacet
facet normal 0 -0 1
  outer loop
    vertex 1.624999999999311 0.125 0
    vertex 1.75 0.25 0
    vertex 1.5 0.25 0
  endloop
endfacet
facet normal 0 -0 1
  outer loop
    vertex 1.374999999999311 0.125 0
    vertex 1.5 0.25 0
    vertex 1.25 0.25 0
  endloop
endfacet
facet normal 0 0 1
  outer loop
    vertex 1.499999999998621 0 0
    vertex 1.749999999999497 0 0
    vertex 1.624999999999311 0.125 0
  endloop
endfacet
facet normal 0 -0 1
  outer loop
    vertex 1.749999999999497 0 0
    vertex 1.875 0.125 0
    vertex 1.624999999999311 0.125 0
  endloop
endfacet
facet normal 0 0 1
  outer loop
    vertex 1.749999999999497 0 0
    vertex 2 0 0
    vertex 1.875 0.125 0
  endloop
endfacet
facet normal 0 0 1
  outer loop
    vertex 1.624999999999311 0.125 0
    vertex 1.875 0.125 0
    vertex 1.75 0.25 0
  endloop
endfacet
facet normal 0 0 1
  outer loop
    vertex 1.25 0.25 0
    vertex 1.5 0.25 0
    vertex 1.375 0.375 0
  endloop
endfacet
facet normal 0 -0 1
  outer loop
    vertex 1.5 0.25 0
    vertex 1.625 0.375 0
    vertex 1.375 0.375 0
  endloop
endfacet
facet normal 0 0 1
  outer loop
    vertex 1.5 0.25 0
    vertex 1.75 0.25 0
    vertex 1.625 0.375 0
  endloop
endfacet
facet normal 0 0 1
  outer loop
    vertex 1.375 0.375 0
    vertex 1.625 0.375 0
    vertex 1.5 0.5 0
  endloop
endfacet
facet normal 0 -0 1
  outer loop
    vertex 1 0 0
    vertex 1 0.2499999999994083 0
    vertex 0.875 0.125 0
  endloop
endfacet
facet normal 0 0 1
  outer loop
    vertex 1 0.2499999999994083 0
    vertex 0.875 0.3749999999993359 0
    vertex 0.875 0.125 0
  endloop
endfacet
facet normal 0 -0 1
  outer loop
    vertex 1 0.2499999999994083 0
    vertex 1 0.4999999999986718 0
    vertex 0.875 0.3749999999993359 0
  endloop
endfacet
facet normal 0 -0 1
  outer loop
    vertex 0.875 0.125 0
    vertex 0.875 0.3749999999993359 0
    vertex 0.75 0.25 0
  endloop
endfacet
facet normal 0 0 1
  outer loop
    vertex 1 0.4999999999986718 0
    vertex 0.875 0.6249999999993359 0
    vertex 0.875 0.3749999999993359 0
  endloop
endfacet
facet normal 0 0 1
  outer loop
    vertex 0.875 0.6249999999993359 0
    vertex 0.75 0.5 0
    vertex 0.875 0.3749999999993359 0
  endloop
endfacet
facet normal 0 0 1
  outer loop
    vertex 0.875 0.6249999999993359 0
    vertex 0.75 0.75 0
    vertex 0.75 0.5 0
  endloop
endfacet
facet normal 0 0 1
  outer loop
    vertex 0.875 0.3749999999993359 0
    vertex 0.75 0.5 0
    vertex 0.75 0.25 0
  endloop
endfacet
facet normal 0 -0 1
  outer loop
    vertex 1 0.4999999999986718 0
    vertex 1 0.7499999999993359 0
    vertex 0.875 0.6249999999993359 0
  endloop
endfacet
facet normal 0 0 1
  outer loop
    vertex 1 0.7499999999993359 0
    vertex 0.875 0.875 0
    vertex 0.875 0.6249999999993359 0
  endloop
endfacet
facet normal 0 -0 1
  outer loop
    vertex 1 0.7499999999993359 0
    vertex 1 1 0
    vertex 0.875 0.875 0
  endloop
endfacet
facet normal 0 -0 1
  outer loop
    vertex 0.875 0.6249999999993359 0
    vertex 0.875 0.875 0
    vertex 0.75 0.75 0
  endloop
endfacet
facet normal 0 -0 1
  outer loop
    vertex 0.75 0.25 0
    vertex 0.75 0.5 0
    vertex 0.625 0.375 0
  endloop
endfacet
facet normal 0 0 1
  outer loop
    vertex 0.75 0.5 0
    vertex 0.625 0.625 0
    vertex 0.625 0.375 0
  endloop
endfacet
facet normal 0 -0 1
  outer loop
    vertex 0.75 0.5 0
    vertex 0.75 0.75 0
    vertex 0.625 0.625 0
  endloop
endfacet
facet normal 0 -0 1
  outer loop
    vertex 0.625 0.375 0
    vertex 0.625 0.625 0
    vertex 0.5 0.5 0
  endloop
endfacet
facet normal 0 0 1
  outer loop
    vertex 1 1 0
    vertex 1 0.7499999999993359 0
    vertex 1.125 0.875 0
  endloop
endfacet
facet normal -0 0 1
  outer loop
    vertex 1 0.7499999999993359 0
    vertex 1.125 0.6249999999993359 0
    vertex 1.125 0.875 0
  endloop
endfacet
facet normal 0 0 1
  outer loop
    vertex 1 0.7499999999993359 0
    vertex 1 0.4999999999986718 0
    vertex 1.125 0.6249999999993359 0
  endloop
endfacet
facet normal 0 0 1
  outer loop
    vertex 1.125 0.875 0
    vertex 1.125 0.6249999999993359 0
    vertex 1.25 0.75 0
  endloop
endfacet
facet normal -0 0 1
  outer loop
    vertex 1 0.4999999999986718 0
    vertex 1.125 0.3749999999993359 0
    vertex 1.125 0.6249999999993359 0
  endloop
endfacet
facet normal 0 0 1
  outer loop
    vertex 1.125 0.3749999999993359 0
    vertex 1.25 0.5 0
    vertex 1.125 0.6249999999993359 0
  endloop
endfacet
facet normal -0 0 1
  outer loop
    vertex 1.125 0.3749999999993359 0
    vertex 1.25 0.25 0
    vertex 1.25 0.5 0
  endloop
endfacet
facet normal -0 0 1
  outer loop
    vertex 1.125 0.6249999999993359 0
    vertex 1.25 0.5 0
    vertex 1.25 0.75 0
  endloop
endfacet
facet normal 0 0 1
  outer loop
    vertex 1 0.4999999999986718 0
    vertex 1 0.2499999999994083 0
    vertex 1.125 0.3749999999993359 0
  endloop
endfacet
facet normal -0 0 1
  outer loop
    vertex 1 0.2499999999994083 0
    vertex 1.125 0.125 0
    vertex 1.125 0.3749999999993359 0
  endloop
endfacet
facet normal 0 0 1
  outer loop
    vertex 1 0.2499999999994083 0
    vertex 1 0 0
    vertex 1.125 0.125 0
  endloop
endfacet
facet normal 0 0 1
  outer loop
    vertex 1.125 0.3749999999993359 0
    vertex 1.125 0.125 0
    vertex 1.25 0.25 0
  endloop
endfacet
facet normal 0 0 1
  outer loop
    vertex 1.25 0.75 0
    vertex 1.25 0.5 0
    vertex 1.375 0.625 0
  endloop
endfacet
facet normal -0 0 1
  outer loop
    vertex 1.25 0.5 0
    vertex 1.375 0.375 0
    vertex 1.375 0.625 0
  endloop
endfacet
facet normal 0 0 1
  outer loop
    vertex 1.25 0.5 0
    vertex 1.25 0.25 0
    vertex 1.375 0.375 0
  endloop
endfacet
facet normal 0 0 1
  outer loop
    vertex 1.375 0.625 0
    vertex 1.375 0.375 0
    vertex 1.5 0.5 0
  endloop
endfacet
facet normal 0 -0 1
  outer loop
    vertex 2 0 0
    vertex 2 0.2499999999994083 0
    vertex 1.875 0.125 0
  endloop
endfacet
facet normal 0 0 1
  outer loop
    vertex 2 0.2499999999994083 0
    vertex 1.875 0.3749999999993359 0
    vertex 1.875 0.125 0
  endloop
endfacet
facet normal 0 -0 1
  outer loop
    vertex 2 0.2499999999994083 0
    vertex 2 0.4999999999986718 0
    vertex 1.875 0.3749999999993359 0
  endloop
endfacet
facet normal 0 -0 1
  outer loop
    vertex 1.875 0.125 0
    vertex 1.875 0.3749999999993359 0
    vertex 1.75 0.25 0
  endloop
endfacet
facet normal 0 0 1
  outer loop
    vertex 2 0.4999999999986718 0
    vertex 1.875 0.6249999999993359 0
    vertex 1.875 0.3749999999993359 0
  endloop
endfacet
facet normal 0 0 1
  outer loop
    vertex 1.875 0.6249999999993359 0
    vertex 1.75 0.5 0
    vertex 1.875 0.3749999999993359 0
  endloop
endfacet
facet normal 0 0 1
  outer loop
    vertex 1.875 0.6249999999993359 0
    vertex 1.75 0.75 0
    vertex 1.75 0.5 0
  endloop
endfacet
facet normal 0 0 1
  outer loop
    vertex 1.875 0.3749999999993359 0
    vertex 1.75 0.5 0
    vertex 1.75 0.25 0
  endloop
endfacet
facet normal 0 -0 1
  outer loop
    vertex 2 0.4999999999986718 0
    vertex 2 0.7499999999993359 0
    vertex 1.875 0.6249999999993359 0
  endloop
endfacet
facet normal 0 0 1
  outer loop
    vertex 2 0.7499999999993359 0
    vertex 1.875 0.875 0
    vertex 1.875 0.6249999999993359 0
  endloop
endfacet
facet normal 0 -0 1
  outer loop
    vertex 2 0.7499999999993359 0
    vertex 2 1 0
    vertex 1.875 0.875 0
  endloop
endfacet
facet normal 0 -0 1
  outer loop
    vertex 1.875 0.6249999999993359 0
    vertex 1.875 0.875 0
    vertex 1.75 0.75 0
  endloop
endfacet
facet normal 0 -0 1
  outer loop
    vertex 1.75 0.25 0
    vertex 1.75 0.5 0
    vertex 1.625 0.375 0
  endloop
endfacet
facet normal 0 0 1
  outer loop
    vertex 1.75 0.5 0
    vertex 1.625 0.625 0
    vertex 1.625 0.375 0
  endloop
endfacet
facet normal 0 -0 1
  outer loop
    vertex 1.75 0.5 0
    vertex 1.75 0.75 0
    vertex 1.625 0.625 0
  endloop
endfacet
facet normal 0 -0 1
  outer loop
    vertex 1.625 0.375 0
    vertex 1.625 0.625 0
    vertex 1.5 0.5 0
  endloop
endfacet
facet normal 0 0 1
  outer loop
    vertex 1 1 0
    vertex 0.7500000000004128 1 0
    vertex 0.875 0.875 0
  endloop
endfacet
facet normal 0 0 1
  outer loop
    vertex 0.7500000000004128 1 0
    vertex 0.6250000000006652 0.875 0
    vertex 0.875 0.875 0
  endloop
endfacet
facet normal 0 0 1
  outer loop
    vertex 0.7500000000004128 1 0
    vertex 0.5000000000013305 1 0
    vertex 0.6250000000006652 0.875 0
  endloop
endfacet
facet normal 0 0 1
  outer loop
    vertex 0.875 0.875 0
    vertex 0.6250000000006652 0.875 0
    vertex 0.75 0.75 0
  endloop
endfacet
facet normal 0 0 1
  outer loop
    vertex 0.5000000000013305 1 0
    vertex 0.3750000000006652 0.875 0
    vertex 0.6250000000006652 0.875 0
  endloop
endfacet
facet normal -0 0 1
  outer loop
    vertex 0.3750000000006652 0.875 0
    vertex 0.5 0.75 0
    vertex 0.6250000000006652 0.875 0
  endloop
endfacet
facet normal 0 0 1
  outer loop
    vertex 0.3750000000006652 0.875 0
    vertex 0.25 0.75 0
    vertex 0.5 0.75 0
  endloop
endfacet
facet normal 0 0 1
  outer loop
    vertex 0.6250000000006652 0.875 0
    vertex 0.5 0.75 0
    vertex 0.75 0.75 0
  endloop
endfacet
facet normal 0 0 1
  outer loop
    vertex 0.5000000000013305 1 0
    vertex 0.2500000000006652 1 0
    vertex 0.3750000000006652 0.875 0
  endloop
endfacet
facet normal 0 0 1
  outer loop
    vertex 0.2500000000006652 1 0
    vertex 0.125 0.875 0
    vertex 0.3750000000006652 0.875 0
  endloop
endfacet
facet normal 0 0 1
  outer loop
    vertex 0.2500000000006652 1 0
    vertex 0 1 0
    vertex 0.125 0.875 0
  endloop
endfacet
facet normal 0 0 1
  outer loop
    vertex 0.3750000000006652 0.875 0
    vertex 0.125 0.875 0
    vertex 0.25 0.75 0
  endloop
endfacet
facet normal 0 0 1
  outer loop
    vertex 0.75 0.75 0
    vertex 0.5 0.75 0
    vertex 0.625 0.625 0
  endloop
endfacet
facet normal 0 0 1
  outer loop
    vertex 0.5 0.75 0
    vertex 0.375 0.625 0
    vertex 0.625 0.625 0
  endloop
endfacet
facet normal 0 0 1
  outer loop
    vertex 0.5 0.75 0
    vertex 0.25 0.75 0
    vertex 0.375 0.625 0
  endloop
endfacet
facet normal 0 0 1
  outer loop
    vertex 0.625 0.625 0
    vertex 0.375 0.625 0
    vertex 0.5 0.5 0
  endloop
endfacet
facet normal 0 0 1
  outer loop
    vertex 2 1 0
    vertex 1.750000000000793 1 0
    vertex 1.875 0.875 0
  endloop
endfacet
facet normal 0 0 1
  outer loop
    vertex 1.750000000000793 1 0
    vertex 1.625000000000689 0.875 0
    vertex 1.875 0.875 0
  endloop
endfacet
facet normal 0 0 1
  outer loop
    vertex 1.750000000000793 1 0
    vertex 1.500000000001379 1 0
    vertex 1.625000000000689 0.875 0
  endloop
endfacet
facet normal 0 0 1
  outer loop
    vertex 1.875 0.875 0
    vertex 1.625000000000689 0.875 0
    vertex 1.75 0.75 0
  endloop
endfacet
facet normal 0 0 1
  outer loop
    vertex 1.500000000001379 1 0
    vertex 1.375000000000689 0.875 0
    vertex 1.625000000000689 0.875 0
  endloop
endfacet
facet normal -0 0 1
  outer loop
    vertex 1.375000000000689 0.875 0
    vertex 1.5 0.75 0
    vertex 1.625000000000689 0.875 0
  endloop
endfacet
facet normal 0 0 1
  outer loop
    vertex 1.375000000000689 0.875 0
    vertex 1.25 0.75 0
    vertex 1.5 0.75 0
  endloop
endfacet
facet normal 0 0 1
  outer loop
    vertex 1.625000000000689 0.875 0
    vertex 1.5 0.75 0
    vertex 1.75 0.75 0
  endloop
endfacet
facet normal 0 0 1
  outer loop
    vertex 1.500000000001379 1 0
    vertex 1.250000000000503 1 0
    vertex 1.375000000000689 0.875 0
  endloop
endfacet
facet normal 0 0 1
  outer loop
    vertex 1.250000000000503 1 0
    vertex 1.125 0.875 0
    vertex 1.375000000000689 0.875 0
  endloop
endfacet
facet normal 0 0 1
  outer loop
    vertex 1.250000000000503 1 0
    vertex 1 1 0
    vertex 1.125 0.875 0
  endloop
endfacet
facet normal 0 0 1
  outer loop
    vertex 1.375000000000689 0.875 0
    vertex 1.125 0.875 0
    vertex 1.25 0.75 0
  endloop
endfacet
facet normal 0 0 1
  outer loop
    vertex 1.75 0.75 0
    vertex 1.5 0.75 0
    vertex 1.625 0.625 0
  endloop
endfacet
facet normal 0 0 1
  outer loop
    vertex 1.5 0.75 0
    vertex 1.375 0.625 0
    vertex 1.625 0.625 0
  endloop
endfacet
facet normal 0 0 1
  outer loop
    vertex 1.5 0.75 0
    vertex 1.25 0.75 0
    vertex 1.375 0.625 0
  endloop
endfacet
facet normal 0 0 1
  outer loop
    vertex 1.625 0.625 0
    vertex 1.375 0.625 0
    vertex 1.5 0.5 0
  endloop
endfacet
endsolid Created by Gmsh
